<?xml version="1.0" encoding="utf-8"?>
<!-- Generator: Adobe Illustrator 16.0.0, SVG Export Plug-In . SVG Version: 6.00 Build 0)  -->
<!DOCTYPE svg PUBLIC "-//W3C//DTD SVG 1.1//EN" "http://www.w3.org/Graphics/SVG/1.1/DTD/svg11.dtd">
<svg version="1.1" id="Layer_1" xmlns="http://www.w3.org/2000/svg" xmlns:xlink="http://www.w3.org/1999/xlink" x="0px" y="0px"
	 width="132.094px" height="29.729px" viewBox="0 0 132.094 29.729" enable-background="new 0 0 132.094 29.729"
	 xml:space="preserve">
<polygon fill="#F1B531" points="14.538,3.138 11.494,12.173 2.365,12.418 9.615,18.246 7.015,27.433 14.538,22 22.063,27.433 
	19.464,18.246 26.712,12.418 17.583,12.173 "/>
<polygon fill="#F1B531" points="40.452,3.138 37.408,12.173 28.278,12.418 35.527,18.246 32.928,27.433 40.452,22 47.976,27.433 
	45.377,18.246 52.626,12.418 43.496,12.173 "/>
<polygon fill="#F1B531" points="66.365,3.138 63.321,12.173 54.191,12.418 61.439,18.246 58.841,27.433 66.365,22 73.888,27.433 
	71.29,18.246 78.539,12.418 69.409,12.173 "/>
<polygon fill="#F1B531" points="92.277,3.138 89.234,12.173 80.103,12.418 87.353,18.246 84.753,27.433 92.277,22 99.802,27.433 
	97.203,18.246 104.452,12.418 95.323,12.173 "/>
<polygon fill="#F1B531" points="118.191,3.138 115.148,12.173 106.015,12.418 113.265,18.246 110.666,27.433 118.191,22 
	125.714,27.433 123.115,18.246 130.364,12.418 121.234,12.173 "/>
</svg>
